<svg width="32" height="33" viewBox="0 0 32 33" fill="none" xmlns="http://www.w3.org/2000/svg">
<rect y="0.517578" width="32" height="32" rx="7.37061" fill="black"/>
<circle cx="16" cy="16.5176" r="16" fill="black"/>
<rect x="10.5918" y="17.3405" width="5.04235" height="1.26059" rx="0.00516157" transform="rotate(90 10.5918 17.3405)" fill="white"/>
<rect x="20.6758" y="17.3405" width="5.04235" height="1.26059" rx="0.00516157" transform="rotate(90 20.6758 17.3405)" fill="white"/>
<rect x="11.8516" y="23.6432" width="6.30293" height="1.26059" rx="0.00516157" fill="white"/>
<rect width="1.26059" height="1.26059" rx="0.00516157" transform="matrix(-1 0 0 1 11.8516 22.3819)" fill="white"/>
<rect width="1.26059" height="1.26059" rx="0.00516157" transform="matrix(-1 0 0 1 13.1133 13.5589)" fill="white"/>
<rect width="1.26059" height="1.26059" rx="0.00516157" transform="matrix(-1 0 0 1 16.8926 13.5589)" fill="white"/>
<rect width="1.26059" height="1.26059" rx="0.00516157" transform="matrix(-1 0 0 1 14.373 12.2992)" fill="white"/>
<rect width="1.26059" height="1.26059" rx="0.00516157" transform="matrix(-1 0 0 1 18.1543 12.2992)" fill="white"/>
<rect width="1.26059" height="1.26059" rx="0.00516157" transform="matrix(-1 0 0 1 15.6328 11.0378)" fill="white"/>
<rect width="1.26059" height="1.26059" rx="0.00516157" transform="matrix(-1 0 0 1 19.416 11.0378)" fill="white"/>
<rect width="1.26059" height="1.26059" rx="0.00516157" transform="matrix(-1 0 0 1 14.373 9.77731)" fill="white"/>
<rect width="1.26059" height="1.26059" rx="0.00516157" transform="matrix(-1 0 0 1 18.1543 9.77731)" fill="white"/>
<rect width="1.26059" height="1.26059" rx="0.00516157" transform="matrix(-1 0 0 1 13.1133 8.51758)" fill="white"/>
<rect width="1.26059" height="1.26059" rx="0.00516157" transform="matrix(-1 0 0 1 16.8926 8.51758)" fill="white"/>
<rect width="1.26059" height="1.26059" rx="0.00516157" transform="matrix(-1 0 0 1 19.416 22.3819)" fill="white"/>
<rect width="1.26059" height="1.26059" rx="0.00516157" transform="matrix(-1 0 0 1 21.9355 19.8624)" fill="white"/>
<rect width="1.26059" height="2.52117" rx="0.00516157" transform="matrix(-1 0 0 1 23.1973 17.3405)" fill="white"/>
<rect width="1.26059" height="1.26059" rx="0.00516157" transform="matrix(-1 0 0 1 21.9355 16.0808)" fill="white"/>
<rect x="10.5918" y="16.0808" width="8.82366" height="1.26052" rx="0.00516157" fill="white"/>
</svg>
