<svg width="168" height="57" viewBox="0 0 168 57" fill="none" xmlns="http://www.w3.org/2000/svg">
<g clip-path="url(#clip0_4690_672)">
<rect x="6.9375" y="28.3916" width="11.7483" height="2.93707" rx="0.013053" transform="rotate(90 6.9375 28.3916)" fill="white"/>
<rect x="30.4336" y="28.3916" width="11.7483" height="2.93707" rx="0.013053" transform="rotate(90 30.4336 28.3916)" fill="white"/>
<rect x="9.875" y="43.0771" width="14.6853" height="2.93707" rx="0.013053" fill="white"/>
<rect width="2.93707" height="2.93707" rx="0.013053" transform="matrix(-1 0 0 1 9.875 40.1396)" fill="white"/>
<rect width="2.93707" height="2.93707" rx="0.013053" transform="matrix(-1 0 0 1 12.8125 19.5811)" fill="white"/>
<rect width="2.93707" height="2.93707" rx="0.013053" transform="matrix(-1 0 0 1 21.6172 19.5811)" fill="white"/>
<rect width="2.93707" height="2.93707" rx="0.013053" transform="matrix(-1 0 0 1 15.748 16.6436)" fill="white"/>
<rect width="2.93707" height="2.93707" rx="0.013053" transform="matrix(-1 0 0 1 24.5547 16.6436)" fill="white"/>
<rect width="2.93707" height="2.93707" rx="0.013053" transform="matrix(-1 0 0 1 18.6836 13.707)" fill="white"/>
<rect width="2.93707" height="2.93707" rx="0.013053" transform="matrix(-1 0 0 1 27.4961 13.707)" fill="white"/>
<rect width="2.93707" height="2.93707" rx="0.013053" transform="matrix(-1 0 0 1 15.748 10.7695)" fill="white"/>
<rect width="2.93707" height="2.93707" rx="0.013053" transform="matrix(-1 0 0 1 24.5547 10.7695)" fill="white"/>
<rect width="2.93707" height="2.93707" rx="0.013053" transform="matrix(-1 0 0 1 12.8125 7.83496)" fill="white"/>
<rect width="2.93707" height="2.93707" rx="0.013053" transform="matrix(-1 0 0 1 21.6172 7.83496)" fill="white"/>
<rect width="2.93707" height="2.93707" rx="0.013053" transform="matrix(-1 0 0 1 27.4961 40.1396)" fill="white"/>
<rect width="2.93707" height="2.93707" rx="0.013053" transform="matrix(-1 0 0 1 33.3652 34.2656)" fill="white"/>
<rect width="2.93707" height="5.87413" rx="0.013053" transform="matrix(-1 0 0 1 36.3086 28.3916)" fill="white"/>
<rect width="2.93707" height="2.93707" rx="0.013053" transform="matrix(-1 0 0 1 33.3652 25.457)" fill="white"/>
<rect x="6.9375" y="25.457" width="20.5584" height="2.93692" rx="0.013053" fill="white"/>
<path d="M50.6752 41.4515V38.0649H47.251V27.4911H50.6752V24.0669H61.2867V27.4911H64.7485V31.2164H60.9104V27.8298H51.0515V37.6886H60.9104V34.2644H64.7485V38.0649H61.2867V41.4515H50.6752ZM70.8318 41.4515V38.0649H67.4076V27.4911H70.8318V24.0669H81.4433V27.4911H84.9051V38.0649H81.4433V41.4515H70.8318ZM71.2081 37.6886H81.067V27.8298H71.2081V37.6886Z" fill="white"/>
<path d="M106.786 41.4515V20.6802H110.211V17.256H120.822V20.6802H124.284V24.4432H120.446V21.0565H110.587V27.4911H117.435V31.2164H110.587V41.4515H106.786Z" fill="white"/>
<path d="M87.2199 41.4515V20.6802H90.6442V17.256H101.256V20.6802H104.717V24.4432H100.879V21.0565H91.0205V27.4911H97.869V31.2164H91.0205V41.4515H87.2199Z" fill="white"/>
<path d="M126.769 41.4515V38.0649H123.345V27.4911H126.769V24.0669H137.381V27.4911H140.842V31.2164H137.004V27.8298H127.145V30.8401H133.994V34.6407H127.145V37.6886H137.004V34.2267H140.842V38.0273H137.381V41.4515H126.769Z" fill="white"/>
<path d="M147.089 41.4515V38.0649H143.665V27.4911H147.089V24.0669H157.701V27.4911H161.163V31.2164H157.325V27.8298H147.466V30.8401H154.314V34.6407H147.466V37.6886H157.325V34.2267H161.163V38.0273H157.701V41.4515H147.089Z" fill="white"/>
</g>
<defs>
<clipPath id="clip0_4690_672">
<rect width="168" height="57" fill="white"/>
</clipPath>
</defs>
</svg>
